# xmcd
#
# Track frame offsets:
#        150
#        23640
#        41712
#        65195
#
# Disc length: 1106 seconds
#
# Revision: 0
# Processed by: cddbd v1.5.1PL0 Copyright (c) Steve Scherf et al.
# Submitted via: ExactAudioCopy v0.95a4
#
DISCID=32045004
DTITLE=Kohhy - Blue Sky
DYEAR=2004
DGENRE=JPop
TTITLE0=Blue Sky
TTITLE1=Again
TTITLE2=Blue Sky (Instrumental)
TTITLE3=Again (instrumental)
EXTD=
EXTT0=
EXTT1=
EXTT2=
EXTT3=
PLAYORDER=
